<?xml version="1.0" encoding="utf-8"?>
<!-- Generator: Adobe Illustrator 26.1.0, SVG Export Plug-In . SVG Version: 6.00 Build 0)  -->
<svg version="1.1" id="Layer_1" xmlns="http://www.w3.org/2000/svg" xmlns:xlink="http://www.w3.org/1999/xlink" x="0px" y="0px"
	 viewBox="0 0 375 657" style="enable-background:new 0 0 375 657;" xml:space="preserve">
<style type="text/css">
	.st0{fill:#EDFBFE;}
	.st1{fill-rule:evenodd;clip-rule:evenodd;fill:url(#SVGID_1_);}
	.st2{fill-rule:evenodd;clip-rule:evenodd;fill:url(#SVGID_00000036243760759787161610000004244893094916820669_);}
	.st3{fill-rule:evenodd;clip-rule:evenodd;fill:url(#SVGID_00000109028903282976837610000016620219314778192778_);}
	
		.st4{opacity:0.543;fill:none;stroke:url(#SVGID_00000143591198058728070870000006856436431286071180_);stroke-width:4.528;enable-background:new    ;}
	.st5{fill-rule:evenodd;clip-rule:evenodd;fill:url(#SVGID_00000111890387843635497810000007706387547593473153_);}
</style>
<rect class="st0" width="375" height="657"/>
<g transform="translate(-40 -3)">
	
		<linearGradient id="SVGID_1_" gradientUnits="userSpaceOnUse" x1="19.9705" y1="773.1796" x2="227.2919" y2="193.6439" gradientTransform="matrix(1 0 0 -1 -40 661)">
		<stop  offset="0" style="stop-color:#EDFBFE;stop-opacity:0"/>
		<stop  offset="0.3243" style="stop-color:#E8FAFE;stop-opacity:0.3243"/>
		<stop  offset="0.4832" style="stop-color:#DEF7FE;stop-opacity:0.4832"/>
		<stop  offset="0.682" style="stop-color:#DBF6FE;stop-opacity:0.682"/>
		<stop  offset="1" style="stop-color:#C9F0FF"/>
	</linearGradient>
	<path class="st1" d="M-14,324c14.4-54,43.7-74.6,87.8-61.6c66.1,19.5,66.1,18.7,111.3-14.1c13.6-9.8,5.1-56.4-15.2-57.9
		s-4.8-35.1,30.2-41.6c35-6.6-9.4-53-36-66.5c-27.7-14,7.9-50.9,10.6-65c4.5-22.9-58.4-22.9-188.7,0L-14,324L-14,324z"/>
	
		<linearGradient id="SVGID_00000018917757594256653860000004179672130109931674_" gradientUnits="userSpaceOnUse" x1="377.9738" y1="730.0145" x2="364.4739" y2="67.5501" gradientTransform="matrix(1 0 0 -1 -40 661)">
		<stop  offset="0" style="stop-color:#FFFFFF;stop-opacity:0"/>
		<stop  offset="4.147840e-02" style="stop-color:#FBFEFF;stop-opacity:4.147840e-02"/>
		<stop  offset="0.419" style="stop-color:#E0F6FF;stop-opacity:0.419"/>
		<stop  offset="0.7511" style="stop-color:#CFF2FF;stop-opacity:0.7511"/>
		<stop  offset="1" style="stop-color:#C9F0FF"/>
	</linearGradient>
	<path style="fill-rule:evenodd;clip-rule:evenodd;fill:url(#SVGID_00000018917757594256653860000004179672130109931674_);" d="
		M437,538c-26.2-0.6-45.5-12.6-57.9-35.9c-18.6-35-18.5-110.8-58.3-106.7s-82.2-12.8-67.2-60.5c15.1-47.7,50.3-41.8,58.7-119.6
		s-60.5,16.1-71.9-35.6c-4.4-20.2,6.1-22.9-10.3-45.6c-5.4-7.5-8.1-18.5-7-22.7c3.4-71.6,5.7-107.7,7-108.3c6.1-3,14.4-2,27.6-2
		c28.3,0,88,0.7,179.2,2L437,538L437,538z"/>
	
		<linearGradient id="SVGID_00000054963009752823567300000018007618485344953779_" gradientUnits="userSpaceOnUse" x1="-1444.0757" y1="1166.5264" x2="-1444.946" y2="1167.3174" gradientTransform="matrix(11.3137 11.3137 11.3137 -11.3137 3224.0073 30203.377)">
		<stop  offset="0" style="stop-color:#FFFFFF;stop-opacity:0"/>
		<stop  offset="1" style="stop-color:#C9F0FF"/>
	</linearGradient>
	<path style="fill-rule:evenodd;clip-rule:evenodd;fill:url(#SVGID_00000054963009752823567300000018007618485344953779_);" d="
		M83.9,638.6l9.5,9.5c0.5,0.5,0.5,1.3,0,1.8l-9.5,9.5c-0.5,0.5-1.3,0.5-1.8,0l-9.5-9.5c-0.5-0.5-0.5-1.3,0-1.8l9.5-9.5
		C82.6,638.1,83.4,638.1,83.9,638.6z"/>
	
		<linearGradient id="SVGID_00000066480701660514371770000011863039644239669890_" gradientUnits="userSpaceOnUse" x1="-1460.0571" y1="1133.5062" x2="-1458.4277" y2="1134.4884" gradientTransform="matrix(18.3624 10.6015 10.601 -18.3615 14850.7139 36761.6562)">
		<stop  offset="0" style="stop-color:#FFFFFF;stop-opacity:0"/>
		<stop  offset="1" style="stop-color:#C9F0FF"/>
	</linearGradient>
	
		<path style="opacity:0.543;fill:none;stroke:url(#SVGID_00000066480701660514371770000011863039644239669890_);stroke-width:4.528;enable-background:new    ;" d="
		M100.7,460.1l-1.1,18.6c-0.1,1.2-1.1,2.2-2.4,2.1c-0.4,0-0.7-0.1-1-0.3l-14.4-8.3c-1.1-0.6-1.5-2-0.8-3.1c0.2-0.3,0.4-0.6,0.7-0.8
		L97.3,458c1-0.7,2.4-0.4,3.1,0.6C100.6,459.2,100.8,459.6,100.7,460.1z"/>
	
		<linearGradient id="SVGID_00000128457726985966940960000015075536456058081700_" gradientUnits="userSpaceOnUse" x1="-1426.3667" y1="1182.7526" x2="-1423.6881" y2="1179.8009" gradientTransform="matrix(9.1924 9.1924 9.1924 -9.1924 2506.7705 24388.2852)">
		<stop  offset="0" style="stop-color:#FFFFFF;stop-opacity:0"/>
		<stop  offset="1" style="stop-color:#DEF5FE"/>
	</linearGradient>
	<path style="fill-rule:evenodd;clip-rule:evenodd;fill:url(#SVGID_00000128457726985966940960000015075536456058081700_);" d="
		M265.9,440.5l7.8,7.8c0.4,0.4,0.4,1,0,1.4l-7.8,7.8c-0.4,0.4-1,0.4-1.4,0l-7.8-7.8c-0.4-0.4-0.4-1,0-1.4l7.8-7.8
		C264.9,440.1,265.5,440.1,265.9,440.5z"/>
</g>
</svg>
