<?xml version="1.0" encoding="utf-8"?>
<!-- Generator: Adobe Illustrator 26.1.0, SVG Export Plug-In . SVG Version: 6.00 Build 0)  -->
<svg version="1.1" id="Layer_1" xmlns="http://www.w3.org/2000/svg" xmlns:xlink="http://www.w3.org/1999/xlink" x="0px" y="0px"
	 viewBox="0 0 44.9 39" style="enable-background:new 0 0 44.9 39;" xml:space="preserve">
<style type="text/css">
	.st0{fill:#FFFFFF;}
</style>
<g>
	<path class="st0" d="M28,0.9c-7.7,0-15.8,1.7-23.9,4C3,5.1,2,5.8,1.5,6.6S0.8,8.2,0.7,9c-0.8,4.4-0.7,8.8-0.5,13.6
		c0,1.1,0.2,2.4,0.7,3.2c0.5,0.8,1.5,1.3,2.6,1.5c1.4,0.2,2.8,0.4,4.2,0.5l-0.3,8.7c0,0.7,0.3,1.3,0.7,1.6s0.8,0.4,1.2,0.4
		c0.9,0.1,1.9-0.3,2.4-1.3c2.2-4.2,3.6-6.1,6.3-8.9c7.2,0.2,13.4-0.2,20.5-0.7c2.5-0.1,4.2-2.1,4.7-3.7c1.4-4.2,1.6-9.5,1.7-14.7
		c0.1-2.1-0.7-4.1-2-5.2c-1.2-1-2.7-1.3-4.1-1.7C35,1.4,31.3,0.9,28,0.9z M38.3,4.2c1.4,0.4,2.6,0.7,3.3,1.3
		c1.3,1.3,1.2,2.2,1.2,3.7c-0.1,5.1-0.4,10.1-1.5,13.9c-0.5,1.4-1.4,2.4-3,2.6c-7.2,0.5-13.5,0.9-20.7,0.7c-0.3,0-0.6,0.1-0.8,0.3
		c-3,3.1-4.6,5.2-6.9,9.7c-0.1,0.1-0.2,0.2-0.3,0.2s-0.1-0.1-0.1-0.1l0.3-9.4c0-0.5-0.4-1-0.9-1c-1.7-0.2-3.4-0.4-5.1-0.6
		c-0.7-0.1-1-0.3-1.2-0.6c-0.3-0.8-0.3-1.3-0.4-2.1c-0.2-5-0.3-9.2,0.4-13.4c0.1-0.6,0.3-1.2,0.5-1.8c0.4-0.6,1-0.7,1.6-0.9
		c8-2.2,15.7-3.8,23.1-3.8C31.5,3,35.3,3.4,38.3,4.2z M10.8,12.3c-1.1,1.3-1,3.1-0.1,4.3c0.4,0.6,1.1,1.1,2,1.2
		c1.1,0.1,1.8-0.4,2.5-0.9c1.4-1.2,1.5-3.2,0.5-4.7c-0.5-0.8-1.4-1.2-2.2-1.2C12.2,11,11.4,11.5,10.8,12.3L10.8,12.3z M22.6,11.2
		c-1.1,0-2,0.8-2.5,1.6c-0.6,0.9-1,2.1-0.5,3.2c1,2.2,4.3,2.2,5.6-0.1c0.6-1,0.5-2.2,0-3.1c-0.5-0.9-1.1-1.5-2.1-1.7
		C23,11.2,22.8,11.2,22.6,11.2z M32.3,11.4c-0.3,0-0.7,0-1,0.1c-1.3,0.4-2.4,1.7-2.3,3.4c0.1,0.9,0.5,1.7,1.2,2.3
		c0.7,0.6,1.8,0.8,2.9,0.6c1.3-0.3,2.1-1.3,2.3-2.3c0.3-1,0.2-2-0.4-2.8C34.3,11.9,33.3,11.4,32.3,11.4L32.3,11.4z M13.3,13
		c0.2,0,0.4,0.1,0.6,0.4c0.4,0.6,0.3,1.6-0.1,2c-0.4,0.4-0.7,0.4-0.9,0.4s-0.4-0.2-0.6-0.4c-0.3-0.5-0.4-1.3,0-1.8
		C12.6,13.3,13,13.1,13.3,13L13.3,13z M22.8,13.3c0,0,0.5,0.3,0.7,0.6c0.2,0.4,0.2,0.7,0,1.1c-0.6,1-1.8,0.7-2,0.3
		c-0.1-0.2,0-0.8,0.3-1.3C22.2,13.4,22.6,13.2,22.8,13.3L22.8,13.3z M33.3,14c0.1,0.1,0.2,0.6,0.1,1.1c-0.1,0.4-0.3,0.7-0.8,0.8
		c-0.6,0.1-0.9,0-1.2-0.2c-0.3-0.2-0.4-0.6-0.5-0.9c-0.1-0.9,0.2-1.1,0.8-1.3C32.4,13.3,33.1,13.6,33.3,14z"/>
</g>
</svg>
